<?xml version="1.0" encoding="UTF-8"?>
<svg id="Layer_1" data-name="Layer 1" xmlns="http://www.w3.org/2000/svg" viewBox="0 0 772.27 237.91">
  <g id="planet">
    <path d="M84.87,225.63C39.71,211.21,7,168.9,7,118.96,7,57.12,57.12,7,118.96,7s111.96,50.12,111.96,111.96-50.12,111.96-111.96,111.96c-11.88,0-23.34-1.85-34.08-5.28" style="fill: none; stroke: #FFF; stroke-miterlimit: 10; stroke-width: 14px;"/>
    <path d="M165.75,128.07c45.63-50.51,70.46-98.51,56.54-112.44-7.3-7.3-23.97-3.95-45.46,7.47" style="fill: none; stroke: #FFF; stroke-miterlimit: 10; stroke-width: 14px;"/>
    <path d="M23.25,176.54c-11.54,21.62-14.95,38.41-7.62,45.75,13.33,13.33,57.85-8.83,105.91-50.74" style="fill: none; stroke: #FFF; stroke-miterlimit: 10; stroke-width: 14px;"/>
    <path d="M143.27,160.36l-8.94,6.87c-1.6,1.23-3.83-.33-3.22-2.26l3.81-12.02c.25-.8,0-1.67-.65-2.21l-9.39-7.84c-1.5-1.25-.59-3.69,1.36-3.65l11.39.23c.91.02,1.73-.57,2.01-1.44l3.63-11.45c.62-1.96,3.42-1.91,3.96.08l3.16,11.59c.24.88,1.03,1.5,1.95,1.52l11.39.23c1.95.04,2.76,2.51,1.22,3.7l-9.7,7.46c-.66.51-.95,1.37-.73,2.18l3.32,12.16c.53,1.95-1.76,3.42-3.31,2.13l-8.66-7.22c-.74-.62-1.81-.64-2.58-.05Z" style="fill: #FFF; stroke: #FFF; stroke-miterlimit: 10;"/>
  </g>
  <g>
    <path d="M305.47,139.01v-39.2l37.4-53h54l2.1,14.2h-47.7l-29.8,43.2v30.4l30.1,44h32.6l6.5-6.9v-48.7l5.9,5.2h-37v-12.8h44.9v63.8l-12.4,13.6h-48.8l-37.8-53.8Z" style="fill: #FFF; stroke: #FFF; stroke-miterlimit: 10;"/>
    <path d="M479.27,100.71l4.8,3.9h-48.2l2.1-13.2h48.9l8.2,9v92.4h-15.8v-92.1ZM467.57,51.61l15-14.3,15.1,14.3-15.1,14.4-15-14.4Z" style="fill: #FFF; stroke: #FFF; stroke-miterlimit: 10;"/>
    <path d="M558.47,157.31v-34.9l30.9-31h49.2v13h-41.9l-23.1,23.3v25l17.8,16.7,47.2-12.4v10.4l-51.9,15.4-28.2-25.5ZM569.77,219.91h43.4l16.9-20.5v-35l.3-2.4v-70.6h14.9v112.1l-24.5,29.3h-48.8l-2.2-12.9Z" style="fill: #FFF; stroke: #FFF; stroke-miterlimit: 10;"/>
    <path d="M678.17,172.31v-22.5l24.9-16.6h59.3v11.6h-53.9l-16.2,10.4v11.9l18.8,15.3,51.3-14.2v9.8l-56.6,17.1-27.6-22.8ZM756.67,175.41v-59.7l-11.2-11.9h-54l2.1-12.4h58.5l19.7,20.7v80.7h-10.4l-4.7-17.4Z" style="fill: #FFF; stroke: #FFF; stroke-miterlimit: 10;"/>
  </g>
</svg>
